<svg xmlns="http://www.w3.org/2000/svg" width="390" height="844" viewBox="0 0 390 844"><defs><clipPath id="clip0"><rect x="0" y="104" width="390" height="658" rx="0"/></clipPath></defs><rect width="100%" height="100%" fill="rgb(244, 246, 250)"/><g data-name="app"><g data-name="shell"><g data-name="workspace"><g data-name="phone-status"><rect x="0" y="0" width="390" height="28" rx="0" fill="rgb(255, 255, 255)" stroke="rgb(23, 40, 59)" stroke-width="0"/><g data-name="SPAN"><text x="24" y="15.84" font-family="Segoe UI, Arial, sans-serif" font-size="12" font-weight="600" font-style="normal" fill="rgb(23, 40, 59)" xml:space="preserve">9:41</text></g><g data-name="SPAN"><text x="312.390625" y="15.84" font-family="Segoe UI, Arial, sans-serif" font-size="12" font-weight="600" font-style="normal" fill="rgb(23, 40, 59)" xml:space="preserve">▴ ▰ ▰</text></g></g><g data-name="top"><rect x="0" y="28" width="390" height="76" rx="0" fill="rgb(255, 255, 255)" stroke="rgb(23, 40, 59)" stroke-width="0"/><g data-name="community"><g data-name="Open menu"><svg x="28" y="51.5" width="24" height="28" viewBox="0 0 24 24"><path d="M4 6h16M4 12h16M4 18h16"></path></svg></g><g data-name="DIV"><g data-name="small"><text x="72" y="57.2" font-family="Segoe UI, Arial, sans-serif" font-size="10" font-weight="400" font-style="normal" fill="rgb(101, 116, 136)" xml:space="preserve">Your community</text></g><g data-name="STRONG"><text x="72" y="79.48" font-family="Segoe UI, Arial, sans-serif" font-size="14" font-weight="700" font-style="normal" fill="rgb(23, 40, 59)" xml:space="preserve">Buzzin community</text></g></g></g></g><g data-name="main"><g clip-path="url(#clip0)"><g data-name="page-head"><g data-name="DIV"><g data-name="H1"><text x="20" y="147.32" font-family="Segoe UI, Arial, sans-serif" font-size="26" font-weight="700" font-style="normal" fill="rgb(23, 40, 59)" xml:space="preserve">Your permit is ready</text></g><g data-name="P"><text x="20" y="180.3" font-family="Segoe UI, Arial, sans-serif" font-size="15" font-weight="400" font-style="normal" fill="rgb(101, 116, 136)" xml:space="preserve">Manage your request with Buzzin community.</text></g></g></g><g data-name="notice green"><rect x="20" y="209.6875" width="350" height="103.5" rx="12" fill="rgb(237, 248, 242)" stroke="rgb(204, 232, 217)" stroke-width="1"/><svg x="37" y="227.6875" width="22" height="22" viewBox="0 0 24 24"><path d="m5 12 4 4L19 6"></path></svg><g data-name="DIV"><g data-name="STRONG"><text x="69" y="240.3" font-family="Segoe UI, Arial, sans-serif" font-size="15" font-weight="700" font-style="normal" fill="rgb(23, 40, 59)" xml:space="preserve">Approved — you can access your permit</text></g><g data-name="P"><text x="69" y="266.48" font-family="Segoe UI, Arial, sans-serif" font-size="14" font-weight="400" font-style="normal" fill="rgb(83, 99, 117)" xml:space="preserve">Follow the work dates and conditions shown</text><text x="69" y="287.48" font-family="Segoe UI, Arial, sans-serif" font-size="14" font-weight="400" font-style="normal" fill="rgb(83, 99, 117)" xml:space="preserve">on your approved permit.</text></g></g></g><g data-name="card"><rect x="20" y="333.1875" width="350" height="627.5" rx="16" fill="rgb(255, 255, 255)" stroke="rgb(220, 227, 236)" stroke-width="1"/><g data-name="card-heading"><g data-name="H2"><text x="41" y="370.58" font-family="Segoe UI, Arial, sans-serif" font-size="19" font-weight="700" font-style="normal" fill="rgb(23, 40, 59)" xml:space="preserve">Electrical inspection</text></g></g><g data-name="row between"><g data-name="status approved"><rect x="41" y="400.6875" width="88" height="28" rx="6" fill="rgb(231, 244, 236)" stroke="rgb(23, 103, 71)" stroke-width="0"/><text x="51" y="416.84" font-family="Segoe UI, Arial, sans-serif" font-size="12" font-weight="650" font-style="normal" fill="rgb(23, 103, 71)" xml:space="preserve">✓ Approved</text></g><g data-name="small"><text x="300.890625" y="416.66" font-family="Segoe UI, Arial, sans-serif" font-size="13" font-weight="400" font-style="normal" fill="rgb(101, 116, 136)" xml:space="preserve">BZ-1036</text></g></g><g data-name="muted"><text x="41" y="460.3" font-family="Segoe UI, Arial, sans-serif" font-size="15" font-weight="400" font-style="normal" fill="rgb(101, 116, 136)" xml:space="preserve">Buzzin offices · Unit 123 · 12–13 Oct 2026</text></g><g data-name="row"><g data-name="qr-placeholder"><rect x="41" y="487.1875" width="140" height="140" rx="0" fill="rgb(241, 245, 249)" stroke="rgb(148, 163, 184)" stroke-width="2"/><text x="86.390625" y="539.66" font-family="Segoe UI, Arial, sans-serif" font-size="13" font-weight="400" font-style="normal" fill="rgb(101, 116, 136)" xml:space="preserve">QR code</text><text x="73.796875" y="558.66" font-family="Segoe UI, Arial, sans-serif" font-size="13" font-weight="400" font-style="normal" fill="rgb(101, 116, 136)" xml:space="preserve">appears here</text><text x="71" y="578.66" font-family="Segoe UI, Arial, sans-serif" font-size="13" font-weight="400" font-style="normal" fill="rgb(101, 116, 136)" xml:space="preserve">after approval</text></g><g data-name="stack"><g data-name="STRONG"><text x="41" y="656.3" font-family="Segoe UI, Arial, sans-serif" font-size="15" font-weight="700" font-style="normal" fill="rgb(23, 40, 59)" xml:space="preserve">Permit &amp; worker QR codes</text></g><g data-name="muted"><text x="41" y="695.3" font-family="Segoe UI, Arial, sans-serif" font-size="15" font-weight="400" font-style="normal" fill="rgb(101, 116, 136)" xml:space="preserve">Show the approved codes at the entrance.</text></g><g data-name="btn primary"><rect x="41" y="720.1875" width="278.96875" height="48" rx="10" fill="rgb(255, 182, 36)" stroke="rgb(23, 40, 59)" stroke-width="0"/><svg x="103.8125" y="734.1875" width="20" height="20" viewBox="0 0 24 24"><path d="M12 3v12m-5-5 5 5 5-5M4 16v5h16v-5"></path></svg><text x="133.8125" y="746.3" font-family="Segoe UI, Arial, sans-serif" font-size="15" font-weight="650" font-style="normal" fill="rgb(23, 40, 59)" xml:space="preserve">Download permit</text></g></g></g><g data-name="hint"><text x="41" y="797.66" font-family="Segoe UI, Arial, sans-serif" font-size="13" font-weight="400" font-style="normal" fill="rgb(101, 116, 136)" xml:space="preserve">Design placeholder · This is not an access code.</text></g><g data-name="btn secondary"><rect x="41" y="823.6875" width="211.046875" height="50" rx="10" fill="rgb(255, 255, 255)" stroke="rgb(220, 227, 236)" stroke-width="1"/><text x="62" y="851.3" font-family="Segoe UI, Arial, sans-serif" font-size="15" font-weight="650" font-style="normal" fill="rgb(23, 40, 59)" xml:space="preserve">Request final inspection</text></g><g data-name="btn ghost"><text x="45" y="918.3" font-family="Segoe UI, Arial, sans-serif" font-size="15" font-weight="650" font-style="normal" fill="rgb(36, 91, 152)" xml:space="preserve">Use these details for a new request</text></g></g></g></g><g data-name="mobile-nav"><rect x="0" y="762" width="390" height="82" rx="0" fill="rgb(255, 255, 255)" stroke="rgb(220, 227, 236)" stroke-width="1"/><g data-name="BUTTON"><rect x="8" y="771" width="93.5" height="57" rx="0" fill="rgb(255, 255, 255)" stroke="rgb(101, 116, 136)" stroke-width="0"/><svg x="43.75" y="775" width="22" height="22" viewBox="0 0 24 24"><path d="m3 10 9-7 9 7v10H3zM9 20v-7h6v7"></path></svg><text x="30.328125" y="813.84" font-family="Segoe UI, Arial, sans-serif" font-size="12" font-weight="400" font-style="normal" fill="rgb(101, 116, 136)" xml:space="preserve">Overview</text></g><g data-name="active"><rect x="101.5" y="771" width="93.5" height="57" rx="8" fill="rgb(237, 243, 250)" stroke="rgb(36, 91, 152)" stroke-width="0"/><svg x="137.25" y="775" width="22" height="22" viewBox="0 0 24 24"><path d="M6 3h9l4 4v14H6zM14 3v5h5M9 12h7M9 16h7"></path></svg><text x="118.359375" y="813.84" font-family="Segoe UI, Arial, sans-serif" font-size="12" font-weight="400" font-style="normal" fill="rgb(36, 91, 152)" xml:space="preserve">My permits</text></g><g data-name="BUTTON"><rect x="195" y="771" width="93.5" height="57" rx="0" fill="rgb(255, 255, 255)" stroke="rgb(101, 116, 136)" stroke-width="0"/><svg x="230.75" y="775" width="22" height="22" viewBox="0 0 24 24"><circle cx="9" cy="8" r="3"></circle><path d="M3 21v-3a6 6 0 0 1 12 0v3M16 5a3 3 0 0 1 0 6M18 15a5 5 0 0 1 3 6"></path></svg><text x="223.828125" y="813.84" font-family="Segoe UI, Arial, sans-serif" font-size="12" font-weight="400" font-style="normal" fill="rgb(101, 116, 136)" xml:space="preserve">People</text></g><g data-name="BUTTON"><rect x="288.5" y="771" width="93.5" height="57" rx="0" fill="rgb(255, 255, 255)" stroke="rgb(101, 116, 136)" stroke-width="0"/><svg x="324.25" y="775" width="22" height="22" viewBox="0 0 24 24"><path d="m5 6-2 7v6h18v-6l-2-7zM3 13h18M6 19v2M18 19v2"></path><circle cx="7" cy="16" r=".7"></circle><circle cx="17" cy="16" r=".7"></circle></svg><text x="314" y="813.84" font-family="Segoe UI, Arial, sans-serif" font-size="12" font-weight="400" font-style="normal" fill="rgb(101, 116, 136)" xml:space="preserve">Vehicles</text></g></g></g></g></g></svg>