<svg xmlns="http://www.w3.org/2000/svg" width="390" height="844" viewBox="0 0 390 844"><defs><clipPath id="clip0"><rect x="0" y="104" width="390" height="658" rx="0"/></clipPath></defs><rect width="100%" height="100%" fill="rgb(244, 246, 250)"/><g data-name="app"><g data-name="shell"><g data-name="workspace"><g data-name="phone-status"><rect x="0" y="0" width="390" height="28" rx="0" fill="rgb(255, 255, 255)" stroke="rgb(23, 40, 59)" stroke-width="0"/><g data-name="SPAN"><text x="24" y="15.84" font-family="Segoe UI, Arial, sans-serif" font-size="12" font-weight="600" font-style="normal" fill="rgb(23, 40, 59)" xml:space="preserve">9:41</text></g><g data-name="SPAN"><text x="312.390625" y="15.84" font-family="Segoe UI, Arial, sans-serif" font-size="12" font-weight="600" font-style="normal" fill="rgb(23, 40, 59)" xml:space="preserve">▴ ▰ ▰</text></g></g><g data-name="top"><rect x="0" y="28" width="390" height="76" rx="0" fill="rgb(255, 255, 255)" stroke="rgb(23, 40, 59)" stroke-width="0"/><g data-name="community"><g data-name="Open menu"><svg x="28" y="51.5" width="24" height="28" viewBox="0 0 24 24"><path d="M4 6h16M4 12h16M4 18h16"></path></svg></g><g data-name="DIV"><g data-name="small"><text x="72" y="57.2" font-family="Segoe UI, Arial, sans-serif" font-size="10" font-weight="400" font-style="normal" fill="rgb(101, 116, 136)" xml:space="preserve">Your community</text></g><g data-name="STRONG"><text x="72" y="79.48" font-family="Segoe UI, Arial, sans-serif" font-size="14" font-weight="700" font-style="normal" fill="rgb(23, 40, 59)" xml:space="preserve">Buzzin community</text></g></g></g></g><g data-name="main"><g clip-path="url(#clip0)"><g data-name="page-head"><g data-name="DIV"><g data-name="H1"><text x="20" y="147.32" font-family="Segoe UI, Arial, sans-serif" font-size="26" font-weight="700" font-style="normal" fill="rgb(23, 40, 59)" xml:space="preserve">Company &amp; account</text></g><g data-name="P"><text x="20" y="180.3" font-family="Segoe UI, Arial, sans-serif" font-size="15" font-weight="400" font-style="normal" fill="rgb(101, 116, 136)" xml:space="preserve">Keep your company documents and contact details</text><text x="20" y="203.3" font-family="Segoe UI, Arial, sans-serif" font-size="15" font-weight="400" font-style="normal" fill="rgb(101, 116, 136)" xml:space="preserve">up to date.</text></g></g></g><g data-name="card"><rect x="20" y="232.1875" width="350" height="522.5" rx="16" fill="rgb(255, 255, 255)" stroke="rgb(220, 227, 236)" stroke-width="1"/><g data-name="card-heading"><g data-name="H2"><text x="41" y="269.58" font-family="Segoe UI, Arial, sans-serif" font-size="19" font-weight="700" font-style="normal" fill="rgb(23, 40, 59)" xml:space="preserve">Company details</text></g></g><g data-name="grid2"><g data-name="field"><g data-name="LABEL"><text x="41" y="312.48" font-family="Segoe UI, Arial, sans-serif" font-size="14" font-weight="650" font-style="normal" fill="rgb(23, 40, 59)" xml:space="preserve">Company name </text><g data-name="required"><text x="147.328125" y="312.48" font-family="Segoe UI, Arial, sans-serif" font-size="14" font-weight="650" font-style="normal" fill="rgb(181, 55, 55)" xml:space="preserve">*</text></g></g><g data-name="companyName"><rect x="41" y="328.6875" width="308" height="48" rx="9" fill="rgb(255, 255, 255)" stroke="rgb(205, 214, 225)" stroke-width="1"/><text x="55" y="352.9875" font-family="Segoe UI, Arial, sans-serif" font-size="15" font-weight="400" font-style="normal" fill="rgb(23, 40, 59)" xml:space="preserve">Sample Contracting LLC</text></g></g><g data-name="field"><g data-name="LABEL"><text x="41" y="409.48" font-family="Segoe UI, Arial, sans-serif" font-size="14" font-weight="650" font-style="normal" fill="rgb(23, 40, 59)" xml:space="preserve">Company email </text><g data-name="required"><text x="146.828125" y="409.48" font-family="Segoe UI, Arial, sans-serif" font-size="14" font-weight="650" font-style="normal" fill="rgb(181, 55, 55)" xml:space="preserve">*</text></g></g><g data-name="companyEmail"><rect x="41" y="425.6875" width="308" height="48" rx="9" fill="rgb(255, 255, 255)" stroke="rgb(205, 214, 225)" stroke-width="1"/><text x="55" y="449.9875" font-family="Segoe UI, Arial, sans-serif" font-size="15" font-weight="400" font-style="normal" fill="rgb(23, 40, 59)" xml:space="preserve">contractor@example.com</text></g></g><g data-name="field"><g data-name="LABEL"><text x="41" y="506.48" font-family="Segoe UI, Arial, sans-serif" font-size="14" font-weight="650" font-style="normal" fill="rgb(23, 40, 59)" xml:space="preserve">Phone number</text></g><g data-name="companyPhone"><rect x="41" y="522.6875" width="308" height="48" rx="9" fill="rgb(255, 255, 255)" stroke="rgb(205, 214, 225)" stroke-width="1"/><text x="55" y="546.9875" font-family="Segoe UI, Arial, sans-serif" font-size="15" font-weight="400" font-style="normal" fill="rgb(23, 40, 59)" xml:space="preserve">+971 50 000 0000</text></g></g><g data-name="field"><g data-name="LABEL"><text x="41" y="603.48" font-family="Segoe UI, Arial, sans-serif" font-size="14" font-weight="650" font-style="normal" fill="rgb(23, 40, 59)" xml:space="preserve">Company address</text></g><g data-name="companyAddress"><rect x="41" y="619.6875" width="308" height="48" rx="9" fill="rgb(255, 255, 255)" stroke="rgb(205, 214, 225)" stroke-width="1"/><text x="55" y="643.9875" font-family="Segoe UI, Arial, sans-serif" font-size="15" font-weight="400" font-style="normal" fill="rgb(23, 40, 59)" xml:space="preserve">Dubai</text></g></g></g><g data-name="btn primary"><rect x="41" y="685.6875" width="191.78125" height="48" rx="10" fill="rgb(255, 182, 36)" stroke="rgb(23, 40, 59)" stroke-width="0"/><text x="61" y="712.3" font-family="Segoe UI, Arial, sans-serif" font-size="15" font-weight="650" font-style="normal" fill="rgb(23, 40, 59)" xml:space="preserve">Save company details</text></g></g><g data-name="card"><rect x="20" y="774.6875" width="350" height="677.25" rx="16" fill="rgb(255, 255, 255)" stroke="rgb(220, 227, 236)" stroke-width="1"/><g data-name="card-heading"><g data-name="H2"><text x="41" y="812.58" font-family="Segoe UI, Arial, sans-serif" font-size="19" font-weight="700" font-style="normal" fill="rgb(23, 40, 59)" xml:space="preserve">Trade licence </text><g data-name="status draft"><rect x="168.109375" y="798.9375" width="70.78125" height="28" rx="6" fill="rgb(237, 241, 246)" stroke="rgb(83, 101, 124)" stroke-width="0"/><text x="178.109375" y="814.84" font-family="Segoe UI, Arial, sans-serif" font-size="12" font-weight="650" font-style="normal" fill="rgb(83, 101, 124)" xml:space="preserve">Required</text></g></g></g><g data-name="upload"><rect x="41" y="844.9375" width="308" height="76" rx="10" fill="rgb(249, 250, 252)" stroke="rgb(220, 227, 236)" stroke-width="1"/><svg x="58" y="870.9375" width="24" height="24" viewBox="0 0 24 24"><path d="M6 3h9l4 4v14H6zM14 3v5h5M9 12h7M9 16h5"></path></svg><g data-name="DIV"><g data-name="STRONG"><text x="94" y="875.3" font-family="Segoe UI, Arial, sans-serif" font-size="15" font-weight="700" font-style="normal" fill="rgb(23, 40, 59)" xml:space="preserve">Trade licence</text></g><g data-name="licenseName"><text x="94" y="895.66" font-family="Segoe UI, Arial, sans-serif" font-size="13" font-weight="400" font-style="normal" fill="rgb(101, 116, 136)" xml:space="preserve">No file selected</text></g></g></g><g data-name="upload-actions"><g data-name="btn secondary"><rect x="41" y="938.9375" width="308" height="48" rx="10" fill="rgb(255, 255, 255)" stroke="rgb(220, 227, 236)" stroke-width="1"/><svg x="141" y="952.9375" width="20" height="20" viewBox="0 0 24 24"><path d="M12 5v14M5 12h14"></path></svg><text x="171" y="965.3" font-family="Segoe UI, Arial, sans-serif" font-size="15" font-weight="650" font-style="normal" fill="rgb(23, 40, 59)" xml:space="preserve">Choose file</text></g><g data-name="btn ghost"><text x="87.140625" y="1025.3" font-family="Segoe UI, Arial, sans-serif" font-size="15" font-weight="650" font-style="normal" fill="rgb(36, 91, 152)" xml:space="preserve">Preview</text></g><g data-name="btn ghost"><text x="246.71875" y="1025.3" font-family="Segoe UI, Arial, sans-serif" font-size="15" font-weight="650" font-style="normal" fill="rgb(36, 91, 152)" xml:space="preserve">Remove</text></g></g><g data-name="hint"><text x="41" y="1076.66" font-family="Segoe UI, Arial, sans-serif" font-size="13" font-weight="400" font-style="normal" fill="rgb(101, 116, 136)" xml:space="preserve">PDF, JPG or PNG · Up to 10 MB in this preview ·</text><text x="41" y="1095.66" font-family="Segoe UI, Arial, sans-serif" font-size="13" font-weight="400" font-style="normal" fill="rgb(101, 116, 136)" xml:space="preserve">Required</text></g><g data-name="divider"><rect x="41" y="1121.9375" width="308" height="1" rx="0" fill="rgb(220, 227, 236)" stroke="rgb(23, 40, 59)" stroke-width="0"/></g><g data-name="doc-meta"><g data-name="field"><g data-name="LABEL"><text x="41" y="1153.48" font-family="Segoe UI, Arial, sans-serif" font-size="14" font-weight="650" font-style="normal" fill="rgb(23, 40, 59)" xml:space="preserve">Expiry date</text></g><g data-name="licenseExpiry"><rect x="41" y="1169.9375" width="308" height="48.5" rx="9" fill="rgb(255, 255, 255)" stroke="rgb(205, 214, 225)" stroke-width="1"/><text x="55" y="1194.2375" font-family="Segoe UI, Arial, sans-serif" font-size="15" font-weight="400" font-style="normal" fill="rgb(23, 40, 59)" xml:space="preserve">2026-12-31</text></g><g data-name="hint"><text x="41" y="1237.66" font-family="Segoe UI, Arial, sans-serif" font-size="13" font-weight="400" font-style="normal" fill="rgb(101, 116, 136)" xml:space="preserve">Use the expiry printed on the document.</text></g></g><g data-name="stack"><g data-name="check"><rect x="45" y="1277.9375" width="20" height="20" rx="4" fill="white" stroke="#9BACBF"/><text x="78" y="1289.48" font-family="Segoe UI, Arial, sans-serif" font-size="14" font-weight="400" font-style="normal" fill="rgb(23, 40, 59)" xml:space="preserve">No expiry date (not applicable)</text></g><g data-name="hint"><text x="41" y="1337.66" font-family="Segoe UI, Arial, sans-serif" font-size="13" font-weight="400" font-style="normal" fill="rgb(101, 116, 136)" xml:space="preserve">Choose this only when the document has no expiry</text><text x="41" y="1356.66" font-family="Segoe UI, Arial, sans-serif" font-size="13" font-weight="400" font-style="normal" fill="rgb(101, 116, 136)" xml:space="preserve">date.</text></g></g></g><g data-name="btn ghost"><svg x="45" y="1396.9375" width="20" height="20" viewBox="0 0 24 24"><path d="M12 3v12m-5-5 5 5 5-5M4 16v5h16v-5"></path></svg><text x="75" y="1409.3" font-family="Segoe UI, Arial, sans-serif" font-size="15" font-weight="650" font-style="normal" fill="rgb(36, 91, 152)" xml:space="preserve">Download template</text></g></g><g data-name="card"><rect x="20" y="1471.9375" width="350" height="657.75" rx="16" fill="rgb(255, 255, 255)" stroke="rgb(220, 227, 236)" stroke-width="1"/><g data-name="card-heading"><g data-name="H2"><text x="41" y="1509.58" font-family="Segoe UI, Arial, sans-serif" font-size="19" font-weight="700" font-style="normal" fill="rgb(23, 40, 59)" xml:space="preserve">Insurance certificate </text><g data-name="status draft"><rect x="233.46875" y="1496.1875" width="69.09375" height="28" rx="6" fill="rgb(237, 241, 246)" stroke="rgb(83, 101, 124)" stroke-width="0"/><text x="243.46875" y="1511.84" font-family="Segoe UI, Arial, sans-serif" font-size="12" font-weight="650" font-style="normal" fill="rgb(83, 101, 124)" xml:space="preserve">Optional</text></g></g></g><g data-name="upload"><rect x="41" y="1542.1875" width="308" height="76" rx="10" fill="rgb(249, 250, 252)" stroke="rgb(220, 227, 236)" stroke-width="1"/><svg x="58" y="1568.1875" width="24" height="24" viewBox="0 0 24 24"><path d="M6 3h9l4 4v14H6zM14 3v5h5M9 12h7M9 16h5"></path></svg><g data-name="DIV"><g data-name="STRONG"><text x="94" y="1572.3" font-family="Segoe UI, Arial, sans-serif" font-size="15" font-weight="700" font-style="normal" fill="rgb(23, 40, 59)" xml:space="preserve">Insurance certificate</text></g><g data-name="insuranceName"><text x="94" y="1593.66" font-family="Segoe UI, Arial, sans-serif" font-size="13" font-weight="400" font-style="normal" fill="rgb(101, 116, 136)" xml:space="preserve">No file selected</text></g></g></g><g data-name="upload-actions"><g data-name="btn secondary"><rect x="41" y="1636.1875" width="308" height="48" rx="10" fill="rgb(255, 255, 255)" stroke="rgb(220, 227, 236)" stroke-width="1"/><svg x="141" y="1650.1875" width="20" height="20" viewBox="0 0 24 24"><path d="M12 5v14M5 12h14"></path></svg><text x="171" y="1662.3" font-family="Segoe UI, Arial, sans-serif" font-size="15" font-weight="650" font-style="normal" fill="rgb(23, 40, 59)" xml:space="preserve">Choose file</text></g><g data-name="btn ghost"><text x="87.140625" y="1722.3" font-family="Segoe UI, Arial, sans-serif" font-size="15" font-weight="650" font-style="normal" fill="rgb(36, 91, 152)" xml:space="preserve">Preview</text></g><g data-name="btn ghost"><text x="246.71875" y="1722.3" font-family="Segoe UI, Arial, sans-serif" font-size="15" font-weight="650" font-style="normal" fill="rgb(36, 91, 152)" xml:space="preserve">Remove</text></g></g><g data-name="hint"><text x="41" y="1773.66" font-family="Segoe UI, Arial, sans-serif" font-size="13" font-weight="400" font-style="normal" fill="rgb(101, 116, 136)" xml:space="preserve">PDF, JPG or PNG · Up to 10 MB in this preview</text></g><g data-name="divider"><rect x="41" y="1799.6875" width="308" height="1" rx="0" fill="rgb(220, 227, 236)" stroke="rgb(23, 40, 59)" stroke-width="0"/></g><g data-name="doc-meta"><g data-name="field"><g data-name="LABEL"><text x="41" y="1831.48" font-family="Segoe UI, Arial, sans-serif" font-size="14" font-weight="650" font-style="normal" fill="rgb(23, 40, 59)" xml:space="preserve">Expiry date</text></g><g data-name="insuranceExpiry"><rect x="41" y="1847.6875" width="308" height="48.5" rx="9" fill="rgb(255, 255, 255)" stroke="rgb(205, 214, 225)" stroke-width="1"/><text x="55" y="1871.9875" font-family="Segoe UI, Arial, sans-serif" font-size="15" font-weight="400" font-style="normal" fill="rgb(23, 40, 59)" xml:space="preserve">2026-12-31</text></g><g data-name="hint"><text x="41" y="1915.66" font-family="Segoe UI, Arial, sans-serif" font-size="13" font-weight="400" font-style="normal" fill="rgb(101, 116, 136)" xml:space="preserve">Use the expiry printed on the document.</text></g></g><g data-name="stack"><g data-name="check"><rect x="45" y="1955.6875" width="20" height="20" rx="4" fill="white" stroke="#9BACBF"/><text x="78" y="1967.48" font-family="Segoe UI, Arial, sans-serif" font-size="14" font-weight="400" font-style="normal" fill="rgb(23, 40, 59)" xml:space="preserve">No expiry date (not applicable)</text></g><g data-name="hint"><text x="41" y="2015.66" font-family="Segoe UI, Arial, sans-serif" font-size="13" font-weight="400" font-style="normal" fill="rgb(101, 116, 136)" xml:space="preserve">Choose this only when the document has no expiry</text><text x="41" y="2034.66" font-family="Segoe UI, Arial, sans-serif" font-size="13" font-weight="400" font-style="normal" fill="rgb(101, 116, 136)" xml:space="preserve">date.</text></g></g></g><g data-name="btn ghost"><svg x="45" y="2074.6875" width="20" height="20" viewBox="0 0 24 24"><path d="M12 3v12m-5-5 5 5 5-5M4 16v5h16v-5"></path></svg><text x="75" y="2087.3" font-family="Segoe UI, Arial, sans-serif" font-size="15" font-weight="650" font-style="normal" fill="rgb(36, 91, 152)" xml:space="preserve">Download template</text></g></g><g data-name="card"><rect x="20" y="2149.6875" width="350" height="394.5" rx="16" fill="rgb(255, 255, 255)" stroke="rgb(220, 227, 236)" stroke-width="1"/><g data-name="card-heading"><g data-name="H2"><text x="41" y="2187.58" font-family="Segoe UI, Arial, sans-serif" font-size="19" font-weight="700" font-style="normal" fill="rgb(23, 40, 59)" xml:space="preserve">Your account</text></g></g><g data-name="field"><g data-name="LABEL"><text x="41" y="2229.48" font-family="Segoe UI, Arial, sans-serif" font-size="14" font-weight="650" font-style="normal" fill="rgb(23, 40, 59)" xml:space="preserve">Full name</text></g><g data-name="profileName"><rect x="41" y="2246.1875" width="308" height="48" rx="9" fill="rgb(255, 255, 255)" stroke="rgb(205, 214, 225)" stroke-width="1"/><text x="55" y="2270.4875" font-family="Segoe UI, Arial, sans-serif" font-size="15" font-weight="400" font-style="normal" fill="rgb(23, 40, 59)" xml:space="preserve">Alex Morgan</text></g></g><g data-name="field"><g data-name="LABEL"><text x="41" y="2324.48" font-family="Segoe UI, Arial, sans-serif" font-size="14" font-weight="650" font-style="normal" fill="rgb(23, 40, 59)" xml:space="preserve">Email</text></g><g data-name="profileEmail"><rect x="41" y="2341.1875" width="308" height="48" rx="9" fill="rgb(255, 255, 255)" stroke="rgb(205, 214, 225)" stroke-width="1"/><text x="55" y="2365.4875" font-family="Segoe UI, Arial, sans-serif" font-size="15" font-weight="400" font-style="normal" fill="rgb(23, 40, 59)" xml:space="preserve">contractor@example.com</text></g></g><g data-name="btn primary"><rect x="41" y="2407.1875" width="123.265625" height="48" rx="10" fill="rgb(255, 182, 36)" stroke="rgb(23, 40, 59)" stroke-width="0"/><text x="61" y="2433.3" font-family="Segoe UI, Arial, sans-serif" font-size="15" font-weight="650" font-style="normal" fill="rgb(23, 40, 59)" xml:space="preserve">Save profile</text></g><g data-name="btn secondary"><rect x="41" y="2473.1875" width="165.765625" height="50" rx="10" fill="rgb(255, 255, 255)" stroke="rgb(220, 227, 236)" stroke-width="1"/><text x="62" y="2500.3" font-family="Segoe UI, Arial, sans-serif" font-size="15" font-weight="650" font-style="normal" fill="rgb(23, 40, 59)" xml:space="preserve">Change password</text></g></g></g></g><g data-name="mobile-nav"><rect x="0" y="762" width="390" height="82" rx="0" fill="rgb(255, 255, 255)" stroke="rgb(220, 227, 236)" stroke-width="1"/><g data-name="BUTTON"><rect x="8" y="771" width="93.5" height="57" rx="0" fill="rgb(255, 255, 255)" stroke="rgb(101, 116, 136)" stroke-width="0"/><svg x="43.75" y="775" width="22" height="22" viewBox="0 0 24 24"><path d="m3 10 9-7 9 7v10H3zM9 20v-7h6v7"></path></svg><text x="30.328125" y="813.84" font-family="Segoe UI, Arial, sans-serif" font-size="12" font-weight="400" font-style="normal" fill="rgb(101, 116, 136)" xml:space="preserve">Overview</text></g><g data-name="BUTTON"><rect x="101.5" y="771" width="93.5" height="57" rx="0" fill="rgb(255, 255, 255)" stroke="rgb(101, 116, 136)" stroke-width="0"/><svg x="137.25" y="775" width="22" height="22" viewBox="0 0 24 24"><path d="M6 3h9l4 4v14H6zM14 3v5h5M9 12h7M9 16h7"></path></svg><text x="118.359375" y="813.84" font-family="Segoe UI, Arial, sans-serif" font-size="12" font-weight="400" font-style="normal" fill="rgb(101, 116, 136)" xml:space="preserve">My permits</text></g><g data-name="BUTTON"><rect x="195" y="771" width="93.5" height="57" rx="0" fill="rgb(255, 255, 255)" stroke="rgb(101, 116, 136)" stroke-width="0"/><svg x="230.75" y="775" width="22" height="22" viewBox="0 0 24 24"><circle cx="9" cy="8" r="3"></circle><path d="M3 21v-3a6 6 0 0 1 12 0v3M16 5a3 3 0 0 1 0 6M18 15a5 5 0 0 1 3 6"></path></svg><text x="223.828125" y="813.84" font-family="Segoe UI, Arial, sans-serif" font-size="12" font-weight="400" font-style="normal" fill="rgb(101, 116, 136)" xml:space="preserve">People</text></g><g data-name="BUTTON"><rect x="288.5" y="771" width="93.5" height="57" rx="0" fill="rgb(255, 255, 255)" stroke="rgb(101, 116, 136)" stroke-width="0"/><svg x="324.25" y="775" width="22" height="22" viewBox="0 0 24 24"><path d="m5 6-2 7v6h18v-6l-2-7zM3 13h18M6 19v2M18 19v2"></path><circle cx="7" cy="16" r=".7"></circle><circle cx="17" cy="16" r=".7"></circle></svg><text x="314" y="813.84" font-family="Segoe UI, Arial, sans-serif" font-size="12" font-weight="400" font-style="normal" fill="rgb(101, 116, 136)" xml:space="preserve">Vehicles</text></g></g></g></g></g></svg>